<svg width="222" height="100" viewBox="0 0 222 100" fill="none" xmlns="http://www.w3.org/2000/svg">
<path d="M219.327 88.3523C219.112 86.6347 207.988 87.5345 206.606 87.5345C199.911 87.5345 195.476 90.498 189.841 93.6679C179.863 99.2806 163.969 87.5345 138.841 94.0768C122.432 90.7949 117.579 83.6198 101.789 93.6679C96.1794 97.2375 82.6281 96.6781 76.2351 96.6781C60.4153 96.6781 42.8713 97.1942 33.0507 83.4455C31.1933 80.8451 28.8704 72.4477 32.2329 70.3607C37.6725 66.9844 52.1967 64.4813 57.4029 69.5429C59.7221 71.7976 61.9424 78.9608 56.4034 79.3565C48.8182 79.8983 41.7443 76.1184 37.7758 69.7246C30.2839 57.6545 56.6082 50.9155 63.5364 56.4581C66.9315 59.1742 60.9087 62.0366 58.9931 62.2281C56.7562 62.4518 54.7811 63.1274 52.4961 63.0005C51.2977 62.9339 51.2713 61.2028 50.4516 60.5471C38.4783 50.9684 56.762 37.4113 65.9444 49.0979C71.3052 55.9208 72.9411 67.5425 72.9411 75.9035C72.9411 81.35 72.3323 83.9923 67.8526 87.5345C60.0497 93.7041 52.6986 94.158 42.9551 94.0768C32.2009 93.9872 24.1476 90.4779 17.9669 81.6281C13.968 75.9025 11.546 65.9095 13.4235 58.9115C15.6222 50.7165 24.5243 47.0519 32.0512 45.0089C39.2147 43.0645 44.9868 41.7377 52.4961 41.7377" stroke="#963B2B" stroke-width="4.84187" stroke-linecap="round"/>
<path d="M30.7087 74.989C30.1376 69.8486 20.9393 64.121 28.0736 58.633C32.7581 55.0295 36.3372 55.3618 42.1579 55.3618" stroke="#963B2B" stroke-width="4.84187" stroke-linecap="round"/>
<path d="M92.1275 48.9778C92.1275 74.772 71.966 95.5347 47.2742 95.5347C22.5825 95.5347 2.42093 74.772 2.42093 48.9778C2.42093 23.1837 22.5825 2.42093 47.2742 2.42093C71.966 2.42093 92.1275 23.1837 92.1275 48.9778Z" stroke="#963B2B" stroke-width="4.84187"/>
<path d="M65.3036 6.46393C65.5562 11.7693 67.975 16.0709 66.7699 21.4938C66.009 24.918 63.6826 27.6021 61.8414 30.4954C59.266 34.5424 56.9543 38.7833 54.3061 42.7556" stroke="#963B2B" stroke-width="4.84187" stroke-linecap="round"/>
<path d="M55.7726 43.8555C56.3265 40.8091 61.6095 38.6398 64.1632 37.8272C65.9714 37.2519 67.6851 37.3645 69.5398 37.2366C72.7402 37.0159 75.768 36.6206 78.9895 37.257C83.6694 38.1814 86.302 43.7434 87.8485 47.8675C88.6833 50.0934 88.765 52.1187 88.765 54.466C88.765 57.1361 84.4206 55.9527 82.5738 55.9527C77.979 55.9527 76.1555 52.5997 75.3847 48.4377C74.5778 44.0804 75.0388 40.5689 78.2156 37.1755C81.0933 34.1016 83.5475 29.6014 87.2987 27.7258" stroke="#963B2B" stroke-width="4.84187" stroke-linecap="round"/>
<path d="M2.55542 53.6627C2.55542 50.0404 4.53495 45.5501 6.30631 42.5359C7.92147 39.7874 10.4588 37.4006 13.433 36.4592C16.0282 35.6379 20.2536 34.201 22.9681 35.2275C24.0691 35.6438 25.3517 39.0705 25.574 40.2777C25.8674 41.8707 25.9837 43.7986 24.508 44.712C21.5752 46.5273 17.4911 44.3591 16.8483 41.0167C15.7941 35.5358 19.898 31.1544 23.6788 27.878C27.7293 24.368 34.8932 22.922 39.9064 24.7576C43.103 25.9281 43.994 28.101 44.6641 31.3064C45.2773 34.2397 45.8333 36.5985 49.0467 37.1983C53.1306 37.9606 56.1574 37.2607 58.3449 33.5236C60.1304 30.4733 60.477 27.6387 60.477 24.1007C60.477 17.5373 53.1461 13.979 48.0399 12.2758C45.3533 11.3797 44.4864 10.8695 44.4864 7.84154C44.4864 5.94716 44.2222 4.79054 45.5524 3.40723" stroke="#963B2B" stroke-width="4.84187" stroke-linecap="round"/>
<path d="M25.5432 9.68237C28.2314 9.68237 30.9262 12.7474 33.1028 14.1221C35.6351 15.7215 37.1163 20.5194 38.7724 22.9116C42.9188 28.9008 43.6896 37.5366 44.9521 44.4803C45.7743 49.0026 45.5254 53.7197 46.032 58.2795C46.5847 63.2538 46.7175 69.339 45.642 74.1785C44.8507 77.7396 43.3621 82.6479 43.3621 86.0878C43.3621 88.7545 42.2822 90.987 42.2822 93.3774" stroke="#963B2B" stroke-width="2.90512" stroke-linecap="round"/>
<path d="M20.6834 13.4621C29.8935 22.6721 28.243 39.6058 28.243 51.4998C28.243 57.9275 26.4688 63.9877 23.5933 69.7387C22.1957 72.5339 20.6308 75.8876 18.5236 78.2582C17.4046 79.5171 16.7787 81.8305 15.2838 82.578" stroke="#963B2B" stroke-width="2.90512" stroke-linecap="round"/>
</svg>
