<svg width="77" height="24" viewBox="0 0 77 24" fill="none" xmlns="http://www.w3.org/2000/svg">
<path d="M19.1706 23.3866C19.2368 23.2655 19.2627 23.1264 19.2445 22.9895C19.2264 22.8526 19.1652 22.725 19.0697 22.6253C18.8678 22.399 18.6541 22.1835 18.4294 21.9799L18.0966 21.6723C18.0421 21.6173 17.9849 21.5652 17.9251 21.516C18.0411 21.6723 18.0159 21.6471 17.8546 21.4303L17.784 21.3395C17.5797 21.1208 17.357 20.92 17.1184 20.7395C16.9016 20.5479 16.6848 20.3512 16.4629 20.1647C16.3771 20.0454 16.2827 19.9324 16.1805 19.8268C16.0861 19.7342 15.9868 19.6466 15.883 19.5647C15.6763 19.3831 15.4696 19.1966 15.2578 19.0201C14.7536 18.5915 14.2494 18.1629 13.6897 17.7545L13.9972 17.9915C13.1905 17.341 12.3535 16.7309 11.5265 16.1057C10.8055 15.5611 10.0895 15.0065 9.34831 14.4821C8.6071 13.9577 7.83564 13.4182 7.08435 12.8837L6.23726 12.2837L6.89779 12.2837C9.36343 12.3392 11.8392 12.3745 14.3099 12.3644C19.2512 12.3644 24.1926 12.3442 29.134 12.3039C38.9714 12.2333 48.7987 12.2182 58.6361 12.0467C64.1826 11.9509 69.729 11.8198 75.2755 11.7795C75.4843 11.7632 75.6793 11.6688 75.8215 11.515C75.9637 11.3613 76.0427 11.1595 76.0427 10.9501C76.0427 10.7406 75.9637 10.5389 75.8215 10.3851C75.6793 10.2314 75.4843 10.1369 75.2755 10.1206C70.3341 10.0954 65.3927 9.99457 60.4513 9.92397C55.5099 9.85338 50.5635 9.81305 45.6221 9.79288C35.7898 9.7475 25.9574 9.69203 16.12 9.69707C13.3468 9.69707 10.5736 9.72396 7.80035 9.77775C7.05409 9.77775 6.28768 9.808 5.5616 9.82817L5.99019 9.52564C7.23058 8.64325 8.46592 7.76087 9.71136 6.88857C10.4324 6.38435 11.1837 5.88013 11.8745 5.3507C12.1266 5.16414 12.3787 5.00279 12.651 4.84648L13.0846 4.55403C13.2373 4.45378 13.3838 4.34433 13.5233 4.22629C13.9367 3.94897 14.3552 3.68678 14.7637 3.40441L15.0813 3.1876C15.1822 3.11701 15.278 3.05146 15.3738 2.97583C15.349 2.99273 15.3255 3.01126 15.3032 3.03129L15.3939 2.96574L16.0242 2.52203C16.4427 2.22454 16.8612 1.93209 17.2848 1.63965C17.7083 1.3472 18.152 1.09509 18.5907 0.837937C18.6937 0.77776 18.7685 0.679142 18.7988 0.56378C18.8291 0.448417 18.8122 0.32576 18.7521 0.22279C18.6919 0.119819 18.5933 0.0449717 18.4779 0.0147127C18.3625 -0.0155464 18.2399 0.0012616 18.1369 0.0614389C17.6781 0.288338 17.2243 0.530363 16.7553 0.732051L15.3435 1.35224L14.6376 1.6699L14.5771 1.69511L14.325 1.81108L13.9771 1.97747C13.5233 2.18925 13.0796 2.43631 12.6358 2.66825C12.4639 2.7387 12.2956 2.8178 12.1316 2.90524L11.5971 3.1876C11.2946 3.35399 10.9921 3.52038 10.6795 3.66661C10.2931 3.83697 9.91903 4.0341 9.56009 4.25655L8.60207 4.79102C7.94657 5.15742 7.29444 5.52718 6.64568 5.9003C5.36999 6.6415 4.12456 7.43817 2.87913 8.23988C2.17322 8.68695 1.46899 9.13907 0.766433 9.59623C0.601615 9.70105 0.455131 9.83221 0.332801 9.98448C0.117118 10.2533 -0.00029038 10.5877 1.47809e-05 10.9324C-0.000816835 11.2056 0.0723719 11.474 0.211791 11.7089C0.30471 11.8719 0.427925 12.0157 0.574829 12.1325C0.623687 12.1723 0.676002 12.2077 0.731147 12.2383C1.18494 12.6014 1.6589 12.9442 2.12279 13.2972C2.58668 13.6502 3.03039 13.988 3.4842 14.3056C4.3918 14.9763 5.31957 15.6116 6.23726 16.262C7.15494 16.9125 8.06758 17.5679 9.0004 18.1932C9.93321 18.8184 10.8811 19.4537 11.8341 20.0689C12.3383 20.4117 12.888 20.7294 13.4174 21.0773C13.6897 21.2387 13.967 21.395 14.2393 21.5513C14.5415 21.7297 14.8587 21.8816 15.1872 22.0051C15.4494 22.1563 15.6914 22.3026 15.9788 22.4488C16.2906 22.6617 16.6299 22.8314 16.9873 22.953C17.1991 23.074 17.4209 23.1799 17.6327 23.2908C17.8445 23.4018 18.2125 23.5732 18.5151 23.6993C18.6433 23.7219 18.7754 23.7039 18.8929 23.6479C19.0104 23.5918 19.1075 23.5005 19.1706 23.3866Z" fill="#963B2B"/>
</svg>
