<svg width="207" height="112" viewBox="0 0 207 112" fill="none" xmlns="http://www.w3.org/2000/svg">
<path d="M-91 2L147.904 11.1886C147.904 11.1886 165.261 2.00003 173.428 2.00001C181.596 2 185.68 8.12574 184.659 17.3144C183.638 26.503 170.365 30.5868 170.365 30.5868C170.365 30.5868 186.701 22.4192 193.848 26.503C200.994 30.5869 199.973 46.9222 193.848 49.9851C187.722 53.048 182.617 53.0479 182.617 53.0479C182.617 53.0479 193.847 55.0898 195.889 63.2575C197.931 71.4252 197.931 69.3833 193.848 76.53C189.764 83.6768 170.365 76.53 170.365 76.53C170.365 76.53 181.596 79.5929 187.722 90.8235C193.848 102.054 182.617 107.159 176.491 105.117C170.366 103.075 158.114 97.9701 153.009 95.9282C147.904 93.8863 -91 109.201 -91 109.201L-91 2Z" stroke="#963B2B" stroke-width="3.67901"/>
<rect width="4.29017" height="13.5827" rx="2.14509" transform="matrix(-0.47457 -0.880218 -0.880218 0.47457 194.749 21.0906)" fill="#963B2B"/>
<rect width="4.29017" height="13.5827" rx="2.14509" transform="matrix(0.424732 -0.905319 -0.905319 -0.424732 190.884 88.2249)" fill="#963B2B"/>
<rect width="4.29017" height="8.58168" rx="2.14509" transform="matrix(0.165449 -0.986218 -0.986218 -0.165449 204.248 71.7442)" fill="#963B2B"/>
<rect width="4.29017" height="8.58168" rx="2.14509" transform="matrix(-0.302353 -0.953196 -0.953196 0.302353 207 41.8229)" fill="#963B2B"/>
<ellipse cx="154.152" cy="28.3302" rx="7.69033" ry="9.69406" transform="rotate(65.5216 154.152 28.3302)" fill="#963B2B"/>
<ellipse cx="153.637" cy="81.8482" rx="7.41757" ry="10.206" transform="rotate(119.092 153.637 81.8482)" fill="#963B2B"/>
<ellipse cx="166.708" cy="63.9058" rx="7.31102" ry="10.0594" transform="rotate(106.273 166.708 63.9058)" fill="#963B2B"/>
<ellipse cx="166.699" cy="43.6826" rx="7.20359" ry="9.91155" transform="rotate(71.042 166.699 43.6826)" fill="#963B2B"/>
<path d="M149.826 43.8593C151.868 51.006 151.868 60.1946 149.826 64.2785C147.784 68.3623 136.554 81.6348 132.47 81.6348C128.386 81.6348 124.302 79.5928 122.26 77.5509C120.218 75.509 119.198 68.3623 121.239 66.3204C123.281 64.2785 126.344 63.2575 129.407 61.2156C132.47 59.1737 132.47 57.1318 132.47 55.0898C132.47 53.0479 132.47 51.006 129.407 48.9641C126.344 46.9222 122.26 45.9012 121.239 41.8174C120.218 37.7335 119.198 32.6287 122.26 29.5659C125.323 26.503 129.407 26.503 132.47 27.5239C135.533 28.5449 147.784 36.7126 149.826 43.8593Z" fill="#963B2B" stroke="#963B2B" stroke-width="3.67901"/>
</svg>
