<svg width="77" height="24" viewBox="0 0 77 24" fill="none" xmlns="http://www.w3.org/2000/svg">
<path d="M56.8721 23.3866C56.806 23.2655 56.7801 23.1264 56.7982 22.9895C56.8163 22.8526 56.8776 22.725 56.973 22.6253C57.1749 22.399 57.3886 22.1835 57.6134 21.9799L57.9461 21.6723C58.0006 21.6173 58.0578 21.5652 58.1176 21.516C58.0016 21.6723 58.0268 21.6471 58.1882 21.4303L58.2588 21.3395C58.463 21.1208 58.6857 20.92 58.9243 20.7395C59.1412 20.5479 59.358 20.3512 59.5798 20.1647C59.6656 20.0454 59.76 19.9325 59.8622 19.8268C59.9566 19.7342 60.0559 19.6467 60.1597 19.5647C60.3664 19.3831 60.5731 19.1966 60.7849 19.0201C61.2891 18.5915 61.7934 18.1629 62.3531 17.7545L62.0455 17.9915C62.8522 17.341 63.6893 16.7309 64.5162 16.1057C65.2372 15.5612 65.9532 15.0065 66.6944 14.4821C67.4356 13.9577 68.2071 13.4182 68.9584 12.8837L69.8055 12.2837L69.1449 12.2837C66.6793 12.3392 64.2036 12.3745 61.7329 12.3644C56.7915 12.3644 51.8501 12.3442 46.9087 12.3039C37.0713 12.2333 27.244 12.2182 17.4066 12.0467C11.8602 11.9509 6.3137 11.8198 0.767248 11.7795C0.558434 11.7632 0.363449 11.6688 0.221224 11.515C0.0789988 11.3613 -4.87798e-07 11.1595 -4.78642e-07 10.9501C-4.69487e-07 10.7406 0.0789989 10.5389 0.221224 10.3851C0.363449 10.2314 0.558435 10.1369 0.767248 10.1206C5.70863 10.0954 10.65 9.99457 15.5914 9.92398C20.5328 9.85338 25.4792 9.81305 30.4206 9.79288C40.253 9.7475 50.0853 9.69204 59.9227 9.69708C62.6959 9.69708 65.4692 9.72397 68.2424 9.77775C68.9886 9.77775 69.755 9.80801 70.4811 9.82818L70.0525 9.52564C68.8121 8.64326 67.5768 7.76088 66.3314 6.88858C65.6103 6.38436 64.859 5.88014 64.1683 5.35071C63.9162 5.16415 63.664 5.0028 63.3918 4.84649L62.9581 4.55404C62.8054 4.45378 62.6589 4.34433 62.5194 4.2263C62.106 3.94898 61.6875 3.68678 61.2791 3.40442L60.9614 3.18761C60.8606 3.11701 60.7648 3.05147 60.669 2.97583C60.6937 2.99274 60.7173 3.01126 60.7395 3.0313L60.6488 2.96575L60.0185 2.52204C59.6 2.22455 59.1815 1.9321 58.7579 1.63965C58.3344 1.3472 57.8907 1.09509 57.452 0.837942C57.349 0.777765 57.2742 0.679147 57.2439 0.563785C57.2137 0.448422 57.2305 0.325765 57.2907 0.222795C57.3508 0.119824 57.4495 0.0449767 57.5648 0.0147177C57.6802 -0.0155413 57.8028 0.00126666 57.9058 0.061444C58.3646 0.288343 58.8185 0.530368 59.2874 0.732056L60.6992 1.35225L61.4051 1.6699L61.4656 1.69512L61.7177 1.81109L62.0656 1.97748C62.5194 2.18925 62.9632 2.43632 63.4069 2.66826C63.5788 2.73871 63.7471 2.8178 63.9111 2.90524L64.4456 3.18761C64.7481 3.354 65.0506 3.52039 65.3633 3.66661C65.7497 3.83698 66.1237 4.0341 66.4826 4.25655L67.4407 4.79102C68.0962 5.15742 68.7483 5.52718 69.397 5.90031C70.6727 6.64151 71.9182 7.43818 73.1636 8.23989C73.8695 8.68696 74.5737 9.13908 75.2763 9.59624C75.4411 9.70106 75.5876 9.83221 75.7099 9.98448C75.9256 10.2533 76.043 10.5878 76.0427 10.9324C76.0435 11.2056 75.9704 11.474 75.8309 11.7089C75.738 11.8719 75.6148 12.0157 75.4679 12.1325C75.419 12.1723 75.3667 12.2078 75.3116 12.2383C74.8578 12.6014 74.3838 12.9443 73.9199 13.2972C73.456 13.6502 73.0123 13.988 72.5585 14.3056C71.6509 14.9763 70.7232 15.6116 69.8055 16.262C68.8878 16.9125 67.9751 17.5679 67.0423 18.1932C66.1095 18.8184 65.1616 19.4537 64.2086 20.0689C63.7044 20.4117 63.1548 20.7294 62.6253 21.0773C62.3531 21.2387 62.0757 21.395 61.8035 21.5513C61.5012 21.7298 61.1841 21.8816 60.8555 22.0051C60.5933 22.1563 60.3513 22.3026 60.0639 22.4488C59.7521 22.6617 59.4129 22.8314 59.0554 22.953C58.8437 23.074 58.6218 23.1799 58.41 23.2908C58.1983 23.4018 57.8302 23.5732 57.5276 23.6993C57.3994 23.7219 57.2674 23.7039 57.1499 23.6479C57.0323 23.5918 56.9353 23.5005 56.8721 23.3866Z" fill="#963B2B"/>
</svg>
